{
	"asset":{
		"generator":"Khronos glTF Blender I/O v4.1.63",
		"version":"2.0"
	},
	"extensionsUsed":[
		"KHR_materials_transmission",
		"KHR_materials_ior"
	],
	"scene":0,
	"scenes":[
		{
			"name":"Scene",
			"nodes":[
				0,
				1,
				2,
				3,
				4,
				5,
				6,
				7,
				8,
				9
			]
		}
	],
	"nodes":[
		{
			"mesh":0,
			"name":"Plane",
			"rotation":[
				0.7071068286895752,
				0,
				0,
				0.7071068286895752
			],
			"scale":[
				1,
				1,
				0.5955899357795715
			],
			"translation":[
				0,
				0.7330909371376038,
				0
			]
		},
		{
			"mesh":1,
			"name":"Plane.001",
			"rotation":[
				0,
				0,
				-0.7178353667259216,
				0.696212887763977
			],
			"scale":[
				0.14845949411392212,
				0.14845949411392212,
				0.14845949411392212
			],
			"translation":[
				0.3418057858943939,
				0.7348005771636963,
				-0.4903435707092285
			]
		},
		{
			"mesh":2,
			"name":"Cylinder",
			"rotation":[
				0,
				0,
				-0.7071068286895752,
				0.7071068286895752
			],
			"scale":[
				-0.012420913204550743,
				-0.020449863746762276,
				-0.012420913204550743
			],
			"translation":[
				0.3359900712966919,
				0.8114700317382812,
				-0.4527474045753479
			]
		},
		{
			"mesh":3,
			"name":"Cube.005",
			"scale":[
				-0.005264438223093748,
				-0.018390368670225143,
				-0.0013921137433499098
			],
			"translation":[
				0.328867107629776,
				0.5347147583961487,
				-0.4522848129272461
			]
		},
		{
			"mesh":4,
			"name":"Cube.001",
			"rotation":[
				0,
				1,
				0,
				0
			],
			"scale":[
				0.007284694351255894,
				0.0016801425954326987,
				0.008693140000104904
			],
			"translation":[
				0.3282524347305298,
				0.453840047121048,
				-0.4454449713230133
			]
		},
		{
			"mesh":5,
			"name":"Cube.002",
			"rotation":[
				0,
				1,
				0,
				0
			],
			"scale":[
				0.013912703841924667,
				0.0016801425954326987,
				0.008693140000104904
			],
			"translation":[
				0.3230080306529999,
				0.46090275049209595,
				-0.4454449713230133
			]
		},
		{
			"mesh":6,
			"name":"Cube.003",
			"rotation":[
				0,
				1,
				0,
				0
			],
			"scale":[
				0.013912703841924667,
				0.0016801425954326987,
				0.008693140000104904
			],
			"translation":[
				0.3282524347305298,
				0.4544970393180847,
				-0.4454449713230133
			]
		},
		{
			"mesh":7,
			"name":"Cube",
			"scale":[
				0.07116655260324478,
				0.021088477224111557,
				0.31261152029037476
			],
			"translation":[
				0.0015862993896007538,
				0.06473326683044434,
				-0.3702031672000885
			]
		},
		{
			"mesh":8,
			"name":"Plane.002",
			"rotation":[
				0.7071068286895752,
				0,
				0,
				0.7071068286895752
			],
			"scale":[
				0.48080015182495117,
				0.48080015182495117,
				0.48080015182495117
			],
			"translation":[
				0.0026968717575073242,
				0.8304482102394104,
				-0.22262997925281525
			]
		},
		{
			"name":"Text",
			"rotation":[
				0.7071068286895752,
				0,
				0,
				0.7071068286895752
			],
			"scale":[
				0.03485947102308273,
				0.03485947102308273,
				0.03485947102308273
			],
			"translation":[
				-0.015345039777457714,
				0.14523319900035858,
				-0.30049359798431396
			]
		}
	],
	"materials":[
		{
			"doubleSided":true,
			"name":"Material.003",
			"pbrMetallicRoughness":{
				"baseColorFactor":[
					0.09083804488182068,
					0.09083804488182068,
					0.09083804488182068,
					1
				],
				"metallicFactor":0,
				"roughnessFactor":0.33636364340782166
			}
		},
		{
			"doubleSided":true,
			"name":"Material.009",
			"pbrMetallicRoughness":{
				"baseColorFactor":[
					0.012216584756970406,
					0.012216584756970406,
					0.012216584756970406,
					1
				],
				"metallicFactor":0.4909090995788574,
				"roughnessFactor":0.5
			}
		},
		{
			"doubleSided":true,
			"emissiveFactor":[
				1,
				1,
				1
			],
			"name":"Material.010",
			"pbrMetallicRoughness":{
				"baseColorFactor":[
					0,
					0,
					0,
					1
				]
			}
		},
		{
			"doubleSided":true,
			"name":"Material.008",
			"pbrMetallicRoughness":{
				"baseColorFactor":[
					0.19598843157291412,
					0.19598843157291412,
					0.19598843157291412,
					1
				],
				"metallicFactor":0,
				"roughnessFactor":0.4636363685131073
			}
		},
		{
			"doubleSided":true,
			"name":"YELLOW RUB",
			"pbrMetallicRoughness":{
				"baseColorFactor":[
					0.8000000715255737,
					0.6942508816719055,
					0.005073687992990017,
					1
				],
				"metallicFactor":0,
				"roughnessFactor":0.5
			}
		},
		{
			"doubleSided":true,
			"name":"metal",
			"pbrMetallicRoughness":{
				"baseColorFactor":[
					0.800000011920929,
					0.800000011920929,
					0.800000011920929,
					1
				],
				"roughnessFactor":0.05000000074505806
			}
		},
		{
			"doubleSided":true,
			"name":"Material.002",
			"pbrMetallicRoughness":{
				"baseColorFactor":[
					0.800000011920929,
					0.800000011920929,
					0.800000011920929,
					1
				],
				"metallicFactor":0,
				"roughnessFactor":0.5
			}
		},
		{
			"doubleSided":true,
			"name":"Material.001",
			"pbrMetallicRoughness":{
				"baseColorFactor":[
					0.8000000715255737,
					0.04376840963959694,
					0.017154503613710403,
					1
				],
				"metallicFactor":0,
				"roughnessFactor":0.5
			}
		},
		{
			"doubleSided":true,
			"name":"Material.004",
			"pbrMetallicRoughness":{
				"baseColorFactor":[
					0.800000011920929,
					0.800000011920929,
					0.800000011920929,
					1
				],
				"roughnessFactor":0.05000000074505806
			}
		},
		{
			"doubleSided":true,
			"name":"Material.005",
			"pbrMetallicRoughness":{
				"baseColorFactor":[
					0.800000011920929,
					0.800000011920929,
					0.800000011920929,
					1
				],
				"metallicFactor":0,
				"roughnessFactor":0.5
			}
		},
		{
			"doubleSided":true,
			"name":"Material.007",
			"pbrMetallicRoughness":{
				"baseColorFactor":[
					0.800000011920929,
					0.800000011920929,
					0.800000011920929,
					1
				],
				"roughnessFactor":0.5409091114997864
			}
		},
		{
			"doubleSided":true,
			"name":"Material.006",
			"pbrMetallicRoughness":{
				"baseColorFactor":[
					0.02037898264825344,
					0.02037898264825344,
					0.02037898264825344,
					1
				],
				"roughnessFactor":0.5
			}
		},
		{
			"doubleSided":true,
			"name":"STAND",
			"pbrMetallicRoughness":{
				"baseColorFactor":[
					0.800000011920929,
					0.800000011920929,
					0.800000011920929,
					1
				],
				"roughnessFactor":0.07999999821186066
			}
		},
		{
			"alphaMode":"BLEND",
			"doubleSided":true,
			"extensions":{
				"KHR_materials_transmission":{
					"transmissionFactor":1
				},
				"KHR_materials_ior":{
					"ior":1
				}
			},
			"name":"GLASS",
			"pbrMetallicRoughness":{
				"baseColorFactor":[
					0.01466972567141056,
					0.01466972567141056,
					0.01466972567141056,
					1
				],
				"metallicFactor":0,
				"roughnessFactor":0
			}
		}
	],
	"meshes":[
		{
			"name":"Plane",
			"primitives":[
				{
					"attributes":{
						"POSITION":0,
						"NORMAL":1,
						"TEXCOORD_0":2
					},
					"indices":3,
					"material":0
				},
				{
					"attributes":{
						"POSITION":4,
						"NORMAL":5,
						"TEXCOORD_0":6
					},
					"indices":7
				},
				{
					"attributes":{
						"POSITION":8,
						"NORMAL":9,
						"TEXCOORD_0":10
					},
					"indices":11,
					"material":1
				},
				{
					"attributes":{
						"POSITION":12,
						"NORMAL":13,
						"TEXCOORD_0":14
					},
					"indices":15,
					"material":2
				}
			]
		},
		{
			"name":"Plane.001",
			"primitives":[
				{
					"attributes":{
						"POSITION":16,
						"NORMAL":17,
						"TEXCOORD_0":18
					},
					"indices":19,
					"material":3
				}
			]
		},
		{
			"name":"Cylinder",
			"primitives":[
				{
					"attributes":{
						"POSITION":20,
						"NORMAL":21,
						"TEXCOORD_0":22
					},
					"indices":23,
					"material":4
				},
				{
					"attributes":{
						"POSITION":24,
						"NORMAL":25,
						"TEXCOORD_0":26
					},
					"indices":27,
					"material":5
				},
				{
					"attributes":{
						"POSITION":28,
						"NORMAL":29,
						"TEXCOORD_0":30
					},
					"indices":31,
					"material":6
				},
				{
					"attributes":{
						"POSITION":32,
						"NORMAL":33,
						"TEXCOORD_0":34
					},
					"indices":31,
					"material":7
				},
				{
					"attributes":{
						"POSITION":35,
						"NORMAL":36,
						"TEXCOORD_0":37
					},
					"indices":38,
					"material":8
				},
				{
					"attributes":{
						"POSITION":39,
						"NORMAL":40,
						"TEXCOORD_0":41
					},
					"indices":42,
					"material":9
				},
				{
					"attributes":{
						"POSITION":43,
						"NORMAL":44,
						"TEXCOORD_0":45
					},
					"indices":46,
					"material":10
				}
			]
		},
		{
			"name":"Cube.008",
			"primitives":[
				{
					"attributes":{
						"POSITION":47,
						"NORMAL":48,
						"TEXCOORD_0":49
					},
					"indices":50,
					"material":11
				}
			]
		},
		{
			"name":"Cube.009",
			"primitives":[
				{
					"attributes":{
						"POSITION":51,
						"NORMAL":52,
						"TEXCOORD_0":53
					},
					"indices":54
				}
			]
		},
		{
			"name":"Cube.011",
			"primitives":[
				{
					"attributes":{
						"POSITION":55,
						"NORMAL":56,
						"TEXCOORD_0":57
					},
					"indices":54
				}
			]
		},
		{
			"name":"Cube.012",
			"primitives":[
				{
					"attributes":{
						"POSITION":58,
						"NORMAL":59,
						"TEXCOORD_0":60
					},
					"indices":54
				}
			]
		},
		{
			"name":"Cube.013",
			"primitives":[
				{
					"attributes":{
						"POSITION":61,
						"NORMAL":62,
						"TEXCOORD_0":63
					},
					"indices":64,
					"material":12
				}
			]
		},
		{
			"name":"Plane.004",
			"primitives":[
				{
					"attributes":{
						"POSITION":65,
						"NORMAL":66,
						"TEXCOORD_0":67
					},
					"indices":68,
					"material":13
				}
			]
		}
	],
	"accessors":[
		{
			"bufferView":0,
			"componentType":5126,
			"count":807,
			"max":[
				1,
				-0.3218688666820526,
				1
			],
			"min":[
				-1,
				-0.48997801542282104,
				-1
			],
			"type":"VEC3"
		},
		{
			"bufferView":1,
			"componentType":5126,
			"count":807,
			"type":"VEC3"
		},
		{
			"bufferView":2,
			"componentType":5126,
			"count":807,
			"type":"VEC2"
		},
		{
			"bufferView":3,
			"componentType":5123,
			"count":1464,
			"type":"SCALAR"
		},
		{
			"bufferView":4,
			"componentType":5126,
			"count":8,
			"max":[
				1,
				-0.321908563375473,
				1
			],
			"min":[
				-1,
				-0.321908563375473,
				-1
			],
			"type":"VEC3"
		},
		{
			"bufferView":5,
			"componentType":5126,
			"count":8,
			"type":"VEC3"
		},
		{
			"bufferView":6,
			"componentType":5126,
			"count":8,
			"type":"VEC2"
		},
		{
			"bufferView":7,
			"componentType":5123,
			"count":30,
			"type":"SCALAR"
		},
		{
			"bufferView":8,
			"componentType":5126,
			"count":48,
			"max":[
				1,
				-0.30080655217170715,
				1
			],
			"min":[
				-1,
				-0.321908563375473,
				-1
			],
			"type":"VEC3"
		},
		{
			"bufferView":9,
			"componentType":5126,
			"count":48,
			"type":"VEC3"
		},
		{
			"bufferView":10,
			"componentType":5126,
			"count":48,
			"type":"VEC2"
		},
		{
			"bufferView":11,
			"componentType":5123,
			"count":96,
			"type":"SCALAR"
		},
		{
			"bufferView":12,
			"componentType":5126,
			"count":4,
			"max":[
				0.9865204691886902,
				-0.30800625681877136,
				0.9392744302749634
			],
			"min":[
				-0.9865204691886902,
				-0.30800625681877136,
				-0.973882257938385
			],
			"type":"VEC3"
		},
		{
			"bufferView":13,
			"componentType":5126,
			"count":4,
			"type":"VEC3"
		},
		{
			"bufferView":14,
			"componentType":5126,
			"count":4,
			"type":"VEC2"
		},
		{
			"bufferView":15,
			"componentType":5123,
			"count":6,
			"type":"SCALAR"
		},
		{
			"bufferView":16,
			"componentType":5126,
			"count":26167,
			"max":[
				2.685239553451538,
				0.057332638651132584,
				0.47497230768203735
			],
			"min":[
				-1.1995354890823364,
				-0.41375547647476196,
				0.022800792008638382
			],
			"type":"VEC3"
		},
		{
			"bufferView":17,
			"componentType":5126,
			"count":26167,
			"type":"VEC3"
		},
		{
			"bufferView":18,
			"componentType":5126,
			"count":26167,
			"type":"VEC2"
		},
		{
			"bufferView":19,
			"componentType":5123,
			"count":49632,
			"type":"SCALAR"
		},
		{
			"bufferView":20,
			"componentType":5126,
			"count":288,
			"max":[
				1,
				1,
				1.0592308044433594
			],
			"min":[
				-8.127113342285156,
				-1.0384433269500732,
				-1
			],
			"type":"VEC3"
		},
		{
			"bufferView":21,
			"componentType":5126,
			"count":288,
			"type":"VEC3"
		},
		{
			"bufferView":22,
			"componentType":5126,
			"count":288,
			"type":"VEC2"
		},
		{
			"bufferView":23,
			"componentType":5123,
			"count":1014,
			"type":"SCALAR"
		},
		{
			"bufferView":24,
			"componentType":5126,
			"count":681,
			"max":[
				1,
				1,
				1.0592308044433594
			],
			"min":[
				-8.127113342285156,
				-1.1409090757369995,
				-1
			],
			"type":"VEC3"
		},
		{
			"bufferView":25,
			"componentType":5126,
			"count":681,
			"type":"VEC3"
		},
		{
			"bufferView":26,
			"componentType":5126,
			"count":681,
			"type":"VEC2"
		},
		{
			"bufferView":27,
			"componentType":5123,
			"count":2880,
			"type":"SCALAR"
		},
		{
			"bufferView":28,
			"componentType":5126,
			"count":128,
			"max":[
				-2.886992931365967,
				-0.38897937536239624,
				0.7654090523719788
			],
			"min":[
				-4.299349308013916,
				-1.0384433269500732,
				-0.6469475030899048
			],
			"type":"VEC3"
		},
		{
			"bufferView":29,
			"componentType":5126,
			"count":128,
			"type":"VEC3"
		},
		{
			"bufferView":30,
			"componentType":5126,
			"count":128,
			"type":"VEC2"
		},
		{
			"bufferView":31,
			"componentType":5123,
			"count":474,
			"type":"SCALAR"
		},
		{
			"bufferView":32,
			"componentType":5126,
			"count":128,
			"max":[
				-6.420935153961182,
				-0.38897937536239624,
				0.7654090523719788
			],
			"min":[
				-7.833291530609131,
				-1.0384433269500732,
				-0.6469475030899048
			],
			"type":"VEC3"
		},
		{
			"bufferView":33,
			"componentType":5126,
			"count":128,
			"type":"VEC3"
		},
		{
			"bufferView":34,
			"componentType":5126,
			"count":128,
			"type":"VEC2"
		},
		{
			"bufferView":35,
			"componentType":5126,
			"count":6960,
			"max":[
				-12.173565864562988,
				1.4633698463439941,
				0.5373177528381348
			],
			"min":[
				-24.015859603881836,
				-0.01916426420211792,
				-0.5565003156661987
			],
			"type":"VEC3"
		},
		{
			"bufferView":36,
			"componentType":5126,
			"count":6960,
			"type":"VEC3"
		},
		{
			"bufferView":37,
			"componentType":5126,
			"count":6960,
			"type":"VEC2"
		},
		{
			"bufferView":38,
			"componentType":5123,
			"count":11628,
			"type":"SCALAR"
		},
		{
			"bufferView":39,
			"componentType":5126,
			"count":1296,
			"max":[
				-12.644896507263184,
				0.41346344351768494,
				0.12863408029079437
			],
			"min":[
				-23.527006149291992,
				0.2831571698188782,
				0.0719035193324089
			],
			"type":"VEC3"
		},
		{
			"bufferView":40,
			"componentType":5126,
			"count":1296,
			"type":"VEC3"
		},
		{
			"bufferView":41,
			"componentType":5126,
			"count":1296,
			"type":"VEC2"
		},
		{
			"bufferView":42,
			"componentType":5123,
			"count":1944,
			"type":"SCALAR"
		},
		{
			"bufferView":43,
			"componentType":5126,
			"count":1360,
			"max":[
				-27.487960815429688,
				1.5405585765838623,
				1.9226562976837158
			],
			"min":[
				-35.11057662963867,
				-0.4160802364349365,
				-1.428743839263916
			],
			"type":"VEC3"
		},
		{
			"bufferView":44,
			"componentType":5126,
			"count":1360,
			"type":"VEC3"
		},
		{
			"bufferView":45,
			"componentType":5126,
			"count":1360,
			"type":"VEC2"
		},
		{
			"bufferView":46,
			"componentType":5123,
			"count":2580,
			"type":"SCALAR"
		},
		{
			"bufferView":47,
			"componentType":5126,
			"count":72,
			"max":[
				1,
				1,
				1
			],
			"min":[
				-1,
				-6.6431498527526855,
				-1.000030517578125
			],
			"type":"VEC3"
		},
		{
			"bufferView":48,
			"componentType":5126,
			"count":72,
			"type":"VEC3"
		},
		{
			"bufferView":49,
			"componentType":5126,
			"count":72,
			"type":"VEC2"
		},
		{
			"bufferView":50,
			"componentType":5123,
			"count":108,
			"type":"SCALAR"
		},
		{
			"bufferView":51,
			"componentType":5126,
			"count":48,
			"max":[
				1.0000038146972656,
				1.0977630615234375,
				3.390106201171875
			],
			"min":[
				-1,
				-1,
				-1
			],
			"type":"VEC3"
		},
		{
			"bufferView":52,
			"componentType":5126,
			"count":48,
			"type":"VEC3"
		},
		{
			"bufferView":53,
			"componentType":5126,
			"count":48,
			"type":"VEC2"
		},
		{
			"bufferView":54,
			"componentType":5123,
			"count":72,
			"type":"SCALAR"
		},
		{
			"bufferView":55,
			"componentType":5126,
			"count":48,
			"max":[
				0.5965828895568848,
				-1.6518667936325073,
				2.9866793155670166
			],
			"min":[
				-0.5965691804885864,
				-2.8450188636779785,
				-0.5752501487731934
			],
			"type":"VEC3"
		},
		{
			"bufferView":56,
			"componentType":5126,
			"count":48,
			"type":"VEC3"
		},
		{
			"bufferView":57,
			"componentType":5126,
			"count":48,
			"type":"VEC2"
		},
		{
			"bufferView":58,
			"componentType":5126,
			"count":48,
			"max":[
				0.5965828895568848,
				-1.6518667936325073,
				2.9866793155670166
			],
			"min":[
				-0.5965691804885864,
				-2.8450188636779785,
				-0.5752501487731934
			],
			"type":"VEC3"
		},
		{
			"bufferView":59,
			"componentType":5126,
			"count":48,
			"type":"VEC3"
		},
		{
			"bufferView":60,
			"componentType":5126,
			"count":48,
			"type":"VEC2"
		},
		{
			"bufferView":61,
			"componentType":5126,
			"count":104068,
			"max":[
				10.450368881225586,
				7.250100135803223,
				0.6331617832183838
			],
			"min":[
				-10.45038890838623,
				-2.46040678024292,
				-0.6358261108398438
			],
			"type":"VEC3"
		},
		{
			"bufferView":62,
			"componentType":5126,
			"count":104068,
			"type":"VEC3"
		},
		{
			"bufferView":63,
			"componentType":5126,
			"count":104068,
			"type":"VEC2"
		},
		{
			"bufferView":64,
			"componentType":5125,
			"count":162816,
			"type":"SCALAR"
		},
		{
			"bufferView":65,
			"componentType":5126,
			"count":9,
			"max":[
				2.048013687133789,
				-0.16695654392242432,
				1.380959391593933
			],
			"min":[
				-2.0661110877990723,
				-0.1669565588235855,
				-1.0119798183441162
			],
			"type":"VEC3"
		},
		{
			"bufferView":66,
			"componentType":5126,
			"count":9,
			"type":"VEC3"
		},
		{
			"bufferView":67,
			"componentType":5126,
			"count":9,
			"type":"VEC2"
		},
		{
			"bufferView":68,
			"componentType":5123,
			"count":24,
			"type":"SCALAR"
		}
	],
	"bufferViews":[
		{
			"buffer":0,
			"byteLength":9684,
			"byteOffset":0,
			"target":34962
		},
		{
			"buffer":0,
			"byteLength":9684,
			"byteOffset":9684,
			"target":34962
		},
		{
			"buffer":0,
			"byteLength":6456,
			"byteOffset":19368,
			"target":34962
		},
		{
			"buffer":0,
			"byteLength":2928,
			"byteOffset":25824,
			"target":34963
		},
		{
			"buffer":0,
			"byteLength":96,
			"byteOffset":28752,
			"target":34962
		},
		{
			"buffer":0,
			"byteLength":96,
			"byteOffset":28848,
			"target":34962
		},
		{
			"buffer":0,
			"byteLength":64,
			"byteOffset":28944,
			"target":34962
		},
		{
			"buffer":0,
			"byteLength":60,
			"byteOffset":29008,
			"target":34963
		},
		{
			"buffer":0,
			"byteLength":576,
			"byteOffset":29068,
			"target":34962
		},
		{
			"buffer":0,
			"byteLength":576,
			"byteOffset":29644,
			"target":34962
		},
		{
			"buffer":0,
			"byteLength":384,
			"byteOffset":30220,
			"target":34962
		},
		{
			"buffer":0,
			"byteLength":192,
			"byteOffset":30604,
			"target":34963
		},
		{
			"buffer":0,
			"byteLength":48,
			"byteOffset":30796,
			"target":34962
		},
		{
			"buffer":0,
			"byteLength":48,
			"byteOffset":30844,
			"target":34962
		},
		{
			"buffer":0,
			"byteLength":32,
			"byteOffset":30892,
			"target":34962
		},
		{
			"buffer":0,
			"byteLength":12,
			"byteOffset":30924,
			"target":34963
		},
		{
			"buffer":0,
			"byteLength":314004,
			"byteOffset":30936,
			"target":34962
		},
		{
			"buffer":0,
			"byteLength":314004,
			"byteOffset":344940,
			"target":34962
		},
		{
			"buffer":0,
			"byteLength":209336,
			"byteOffset":658944,
			"target":34962
		},
		{
			"buffer":0,
			"byteLength":99264,
			"byteOffset":868280,
			"target":34963
		},
		{
			"buffer":0,
			"byteLength":3456,
			"byteOffset":967544,
			"target":34962
		},
		{
			"buffer":0,
			"byteLength":3456,
			"byteOffset":971000,
			"target":34962
		},
		{
			"buffer":0,
			"byteLength":2304,
			"byteOffset":974456,
			"target":34962
		},
		{
			"buffer":0,
			"byteLength":2028,
			"byteOffset":976760,
			"target":34963
		},
		{
			"buffer":0,
			"byteLength":8172,
			"byteOffset":978788,
			"target":34962
		},
		{
			"buffer":0,
			"byteLength":8172,
			"byteOffset":986960,
			"target":34962
		},
		{
			"buffer":0,
			"byteLength":5448,
			"byteOffset":995132,
			"target":34962
		},
		{
			"buffer":0,
			"byteLength":5760,
			"byteOffset":1000580,
			"target":34963
		},
		{
			"buffer":0,
			"byteLength":1536,
			"byteOffset":1006340,
			"target":34962
		},
		{
			"buffer":0,
			"byteLength":1536,
			"byteOffset":1007876,
			"target":34962
		},
		{
			"buffer":0,
			"byteLength":1024,
			"byteOffset":1009412,
			"target":34962
		},
		{
			"buffer":0,
			"byteLength":948,
			"byteOffset":1010436,
			"target":34963
		},
		{
			"buffer":0,
			"byteLength":1536,
			"byteOffset":1011384,
			"target":34962
		},
		{
			"buffer":0,
			"byteLength":1536,
			"byteOffset":1012920,
			"target":34962
		},
		{
			"buffer":0,
			"byteLength":1024,
			"byteOffset":1014456,
			"target":34962
		},
		{
			"buffer":0,
			"byteLength":83520,
			"byteOffset":1015480,
			"target":34962
		},
		{
			"buffer":0,
			"byteLength":83520,
			"byteOffset":1099000,
			"target":34962
		},
		{
			"buffer":0,
			"byteLength":55680,
			"byteOffset":1182520,
			"target":34962
		},
		{
			"buffer":0,
			"byteLength":23256,
			"byteOffset":1238200,
			"target":34963
		},
		{
			"buffer":0,
			"byteLength":15552,
			"byteOffset":1261456,
			"target":34962
		},
		{
			"buffer":0,
			"byteLength":15552,
			"byteOffset":1277008,
			"target":34962
		},
		{
			"buffer":0,
			"byteLength":10368,
			"byteOffset":1292560,
			"target":34962
		},
		{
			"buffer":0,
			"byteLength":3888,
			"byteOffset":1302928,
			"target":34963
		},
		{
			"buffer":0,
			"byteLength":16320,
			"byteOffset":1306816,
			"target":34962
		},
		{
			"buffer":0,
			"byteLength":16320,
			"byteOffset":1323136,
			"target":34962
		},
		{
			"buffer":0,
			"byteLength":10880,
			"byteOffset":1339456,
			"target":34962
		},
		{
			"buffer":0,
			"byteLength":5160,
			"byteOffset":1350336,
			"target":34963
		},
		{
			"buffer":0,
			"byteLength":864,
			"byteOffset":1355496,
			"target":34962
		},
		{
			"buffer":0,
			"byteLength":864,
			"byteOffset":1356360,
			"target":34962
		},
		{
			"buffer":0,
			"byteLength":576,
			"byteOffset":1357224,
			"target":34962
		},
		{
			"buffer":0,
			"byteLength":216,
			"byteOffset":1357800,
			"target":34963
		},
		{
			"buffer":0,
			"byteLength":576,
			"byteOffset":1358016,
			"target":34962
		},
		{
			"buffer":0,
			"byteLength":576,
			"byteOffset":1358592,
			"target":34962
		},
		{
			"buffer":0,
			"byteLength":384,
			"byteOffset":1359168,
			"target":34962
		},
		{
			"buffer":0,
			"byteLength":144,
			"byteOffset":1359552,
			"target":34963
		},
		{
			"buffer":0,
			"byteLength":576,
			"byteOffset":1359696,
			"target":34962
		},
		{
			"buffer":0,
			"byteLength":576,
			"byteOffset":1360272,
			"target":34962
		},
		{
			"buffer":0,
			"byteLength":384,
			"byteOffset":1360848,
			"target":34962
		},
		{
			"buffer":0,
			"byteLength":576,
			"byteOffset":1361232,
			"target":34962
		},
		{
			"buffer":0,
			"byteLength":576,
			"byteOffset":1361808,
			"target":34962
		},
		{
			"buffer":0,
			"byteLength":384,
			"byteOffset":1362384,
			"target":34962
		},
		{
			"buffer":0,
			"byteLength":1248816,
			"byteOffset":1362768,
			"target":34962
		},
		{
			"buffer":0,
			"byteLength":1248816,
			"byteOffset":2611584,
			"target":34962
		},
		{
			"buffer":0,
			"byteLength":832544,
			"byteOffset":3860400,
			"target":34962
		},
		{
			"buffer":0,
			"byteLength":651264,
			"byteOffset":4692944,
			"target":34963
		},
		{
			"buffer":0,
			"byteLength":108,
			"byteOffset":5344208,
			"target":34962
		},
		{
			"buffer":0,
			"byteLength":108,
			"byteOffset":5344316,
			"target":34962
		},
		{
			"buffer":0,
			"byteLength":72,
			"byteOffset":5344424,
			"target":34962
		},
		{
			"buffer":0,
			"byteLength":48,
			"byteOffset":5344496,
			"target":34963
		}
	],
	"buffers":[
		{
			"byteLength":5344544,
			"uri":"MI%20SMART%20TV.bin"
		}
	]
}
